<svg width="352" height="415" viewBox="0 0 352 415" fill="none" xmlns="http://www.w3.org/2000/svg">
<g filter="url(#filter0_dddddddd_19_17)">
<mask id="path-1-outside-1_19_17" maskUnits="userSpaceOnUse" x="4" y="4" width="344" height="403" fill="black">
<rect fill="white" x="4" y="4" width="344" height="403"/>
<path d="M167.227 15.4352L21.7893 102.53C19.1172 104.127 16.898 106.427 15.355 109.197C13.812 111.968 12.9997 115.111 13 118.31L13 292.621C12.9993 295.821 13.8113 298.964 15.3544 301.734C16.8974 304.505 19.1169 306.804 21.7893 308.401L167.238 395.563C169.911 397.16 172.94 398 176.024 398C179.108 398 182.137 397.16 184.81 395.563L330.232 308.401C332.897 306.798 335.11 304.496 336.649 301.727C338.188 298.958 338.998 295.817 339 292.621L339 118.31C338.999 115.109 338.185 111.965 336.639 109.195C335.094 106.424 332.872 104.126 330.198 102.53L184.795 15.4352C182.116 13.8396 179.081 13 175.992 13C172.903 13 169.868 13.8396 167.189 15.4352"/>
</mask>
<path d="M167.227 15.4352L21.7893 102.53C19.1172 104.127 16.898 106.427 15.355 109.197C13.812 111.968 12.9997 115.111 13 118.31L13 292.621C12.9993 295.821 13.8113 298.964 15.3544 301.734C16.8974 304.505 19.1169 306.804 21.7893 308.401L167.238 395.563C169.911 397.16 172.94 398 176.024 398C179.108 398 182.137 397.16 184.81 395.563L330.232 308.401C332.897 306.798 335.11 304.496 336.649 301.727C338.188 298.958 338.998 295.817 339 292.621L339 118.31C338.999 115.109 338.185 111.965 336.639 109.195C335.094 106.424 332.872 104.126 330.198 102.53L184.795 15.4352C182.116 13.8396 179.081 13 175.992 13C172.903 13 169.868 13.8396 167.189 15.4352" fill="url(#paint0_linear_19_17)"/>
<path d="M171.851 23.1566C176.115 20.6028 177.502 15.0757 174.948 10.8113C172.394 6.54689 166.867 5.16011 162.603 7.71382L171.851 23.1566ZM21.7893 102.53L26.4074 110.255L26.4132 110.251L21.7893 102.53ZM13 118.31L22 118.31L22 118.31L13 118.31ZM13 292.621L22 292.623V292.621H13ZM21.7893 308.401L26.4156 300.681L26.4062 300.676L21.7893 308.401ZM167.238 395.563L162.612 403.283L162.623 403.29L167.238 395.563ZM176.024 398L176.024 407L176.024 398ZM184.81 395.563L189.425 403.29L189.437 403.283L184.81 395.563ZM330.232 308.401L334.859 316.121L334.865 316.117L334.871 316.113L330.232 308.401ZM339 292.621L348 292.625V292.621H339ZM339 118.31L348 118.31L348 118.307L339 118.31ZM330.198 102.53L325.573 110.251L325.58 110.255L325.586 110.259L330.198 102.53ZM184.795 15.4352L189.419 7.7143L189.41 7.70854L189.4 7.70279L184.795 15.4352ZM162.603 7.71382L17.1654 94.8084L26.4132 110.251L171.851 23.1566L162.603 7.71382ZM17.1712 94.805C13.1164 97.229 9.78928 100.694 7.49227 104.818L23.2177 113.576C24.0066 112.16 25.1181 111.025 26.4074 110.255L17.1712 94.805ZM7.49227 104.818C5.19632 108.94 3.9996 113.593 4 118.311L22 118.31C21.9999 116.629 22.4276 114.995 23.2177 113.576L7.49227 104.818ZM4 118.31L4 292.621H22L22 118.31H4ZM4 292.619C3.99892 297.337 5.19544 301.991 7.49165 306.114L23.2171 297.355C22.4272 295.937 21.9996 294.304 22 292.623L4 292.619ZM7.49165 306.114C9.78893 310.238 13.1167 313.703 17.1723 316.127L26.4062 300.676C25.1171 299.905 24.0058 298.771 23.2171 297.355L7.49165 306.114ZM17.163 316.121L162.612 403.283L171.864 387.843L26.4156 300.681L17.163 316.121ZM162.623 403.29C166.677 405.711 171.299 407 176.024 407V389C174.582 389 173.145 388.608 171.854 387.837L162.623 403.29ZM176.024 407C180.749 407 185.372 405.711 189.425 403.29L180.194 387.837C178.903 388.608 177.466 389 176.024 389L176.024 407ZM189.437 403.283L334.859 316.121L325.605 300.682L180.183 387.844L189.437 403.283ZM334.871 316.113C338.913 313.682 342.227 310.218 344.516 306.098L328.782 297.356C327.993 298.775 326.882 299.914 325.593 300.689L334.871 316.113ZM344.516 306.098C346.804 301.98 347.998 297.336 348 292.625L330 292.616C329.999 294.299 329.571 295.935 328.782 297.356L344.516 306.098ZM348 292.621L348 118.31H330L330 292.621H348ZM348 118.307C347.998 113.587 346.799 108.933 344.499 104.811L328.779 113.579C329.571 114.998 329.999 116.632 330 118.313L348 118.307ZM344.499 104.811C342.199 100.686 338.868 97.2225 334.809 94.8009L325.586 110.259C326.877 111.029 327.989 112.163 328.779 113.579L344.499 104.811ZM334.822 94.8089L189.419 7.7143L180.17 23.1561L325.573 110.251L334.822 94.8089ZM189.4 7.70279C185.342 5.28581 180.718 4 175.992 4V22C177.443 22 178.889 22.3934 180.189 23.1676L189.4 7.70279ZM175.992 4C171.265 4 166.641 5.2858 162.583 7.70279L171.794 23.1676C173.094 22.3934 174.54 22 175.992 22V4Z" fill="white" mask="url(#path-1-outside-1_19_17)"/>
</g>
<path d="M126.938 206.812C126.938 208.938 126.792 211.021 126.5 213.062C126.25 215.104 126.062 217.188 125.938 219.312C125.646 219.021 125.312 218.792 124.938 218.625C124.604 218.417 124.25 218.312 123.875 218.312C123.417 218.312 122.979 218.458 122.562 218.75C122.146 219.042 121.938 219.417 121.938 219.875C121.938 220.375 122.167 220.708 122.625 220.875C123.125 221.042 123.625 221.125 124.125 221.125C124.542 221.125 124.833 221.104 125 221.062C125 221.562 124.854 222.083 124.562 222.625C124.312 223.125 123.979 223.625 123.562 224.125C123.188 224.625 122.771 225.104 122.312 225.562C121.896 225.979 121.521 226.354 121.188 226.688C120.938 226.938 120.667 227.292 120.375 227.75C120.083 228.208 119.75 228.667 119.375 229.125C119.042 229.542 118.688 229.917 118.312 230.25C117.938 230.542 117.562 230.688 117.188 230.688C116.771 230.688 116.438 230.583 116.188 230.375C115.938 230.125 115.646 230 115.312 230C114.854 230 114.562 230.25 114.438 230.75C114.354 231.208 114.312 231.667 114.312 232.125V232.875C114.312 233.083 113.875 233.354 113 233.688C112.125 234.021 111.062 234.396 109.812 234.812C108.604 235.188 107.333 235.583 106 236C104.708 236.375 103.625 236.75 102.75 237.125C101.042 237.833 99.3125 238.417 97.5625 238.875C95.8125 239.333 94 239.562 92.125 239.562C90.75 239.562 89.4167 239.375 88.125 239C86.875 238.667 85.6042 238.292 84.3125 237.875C83.0625 237.417 81.7917 237.021 80.5 236.688C79.25 236.312 77.9375 236.125 76.5625 236.125C76.0208 236.125 75.3125 236.208 74.4375 236.375C73.5625 236.542 72.8958 236.792 72.4375 237.125C72.2292 237.292 72.0208 237.583 71.8125 238C71.6042 238.458 71.3542 238.688 71.0625 238.688C70.8542 238.688 70.5625 238.604 70.1875 238.438C69.8125 238.271 69.5417 238.146 69.375 238.062C68.4167 237.562 67.6042 236.917 66.9375 236.125C66.2708 235.292 65.7083 234.396 65.25 233.438C64.7917 232.479 64.4583 231.479 64.25 230.438C64.0417 229.354 63.9375 228.312 63.9375 227.312C63.9375 226.604 64 225.917 64.125 225.25C64.2917 224.542 64.375 223.833 64.375 223.125C64.375 222.125 64.25 221.146 64 220.188C63.7917 219.229 63.6875 218.25 63.6875 217.25C63.6875 216.542 63.7917 215.833 64 215.125C64.25 214.417 64.375 213.708 64.375 213C64.375 212.458 64.25 211.958 64 211.5C63.75 211 63.625 210.479 63.625 209.938C63.625 209.562 63.75 209.25 64 209C64.2917 208.75 64.4375 208.458 64.4375 208.125C64.4375 207.625 64.4167 207.125 64.375 206.625C64.3333 206.125 64.3125 205.625 64.3125 205.125C64.3125 204.875 64.3125 204.521 64.3125 204.062C64.3542 203.562 64.4167 203.083 64.5 202.625C64.5833 202.167 64.7292 201.771 64.9375 201.438C65.1458 201.104 65.4375 200.938 65.8125 200.938C66.5625 200.938 67.3125 201.417 68.0625 202.375C68.8542 203.292 69.5625 204.375 70.1875 205.625C70.8542 206.875 71.3958 208.125 71.8125 209.375C72.2292 210.625 72.4375 211.562 72.4375 212.188C72.4375 212.396 72.3542 212.604 72.1875 212.812C72.0208 212.979 71.8125 213.062 71.5625 213.062C71.7292 213.354 71.9167 213.792 72.125 214.375C72.3333 214.958 72.4375 215.417 72.4375 215.75C72.4375 216.25 72.3542 216.729 72.1875 217.188C72.0625 217.646 72 218.125 72 218.625C72 219.042 72.0833 219.438 72.25 219.812C72.4583 220.188 72.6667 220.542 72.875 220.875C73.2083 221.375 73.5 221.75 73.75 222C74 222.25 74.2708 222.438 74.5625 222.562C74.8542 222.646 75.1667 222.708 75.5 222.75C75.875 222.792 76.3542 222.833 76.9375 222.875C77.7708 224.083 78.7083 225.208 79.75 226.25C80.7917 227.292 81.9167 228.229 83.125 229.062C85 229.479 86.8542 229.812 88.6875 230.062C90.5208 230.312 92.375 230.438 94.25 230.438C95.7917 230.438 97.125 230.271 98.25 229.938C99.4167 229.604 100.479 229.167 101.438 228.625C102.438 228.083 103.396 227.479 104.312 226.812C105.229 226.104 106.188 225.375 107.188 224.625C107.896 224.125 108.646 223.646 109.438 223.188C110.229 222.729 111 222.25 111.75 221.75C112.5 221.25 113.208 220.708 113.875 220.125C114.542 219.5 115.104 218.792 115.562 218C115.854 217.5 116.271 217 116.812 216.5C117.396 215.958 117.688 215.375 117.688 214.75C117.688 214.5 117.667 214.312 117.625 214.188C117.458 212.854 117.333 211.562 117.25 210.312C117.208 209.021 117.146 207.708 117.062 206.375C116.979 205.125 116.708 204.188 116.25 203.562C115.792 202.896 115.208 202.354 114.5 201.938C113.833 201.479 113.104 201.042 112.312 200.625C111.521 200.208 110.75 199.625 110 198.875C109.208 198.083 108.312 197.583 107.312 197.375C106.354 197.167 105.354 197.042 104.312 197C103.271 196.958 102.229 196.896 101.188 196.812C100.188 196.688 99.25 196.292 98.375 195.625C98.125 195.458 97.9167 195.375 97.75 195.375C97.375 195.375 97 195.5 96.625 195.75C96.2917 195.958 95.9167 196.062 95.5 196.062C94.875 196.062 94.2292 195.979 93.5625 195.812C92.9375 195.646 92.3125 195.458 91.6875 195.25C91.0625 195.042 90.4375 194.833 89.8125 194.625C89.1875 194.417 88.5625 194.271 87.9375 194.188C87.1042 194.062 86.4167 193.979 85.875 193.938C85.375 193.896 84.8958 193.833 84.4375 193.75C84.0208 193.625 83.5625 193.458 83.0625 193.25C82.5625 193 81.9375 192.625 81.1875 192.125C79.0208 190.708 76.7083 189.667 74.25 189C73.7917 187.833 73.1875 186.646 72.4375 185.438C71.9792 185.146 71.5208 184.875 71.0625 184.625C70.6458 184.333 70.2292 184.021 69.8125 183.688C69.5625 183.271 69.2292 182.542 68.8125 181.5C68.4375 180.458 68.0625 179.354 67.6875 178.188C67.3125 176.979 66.9792 175.854 66.6875 174.812C66.4375 173.771 66.3125 173.021 66.3125 172.562C66.3125 171.604 66.4167 170.688 66.625 169.812C66.8333 168.938 67.3125 168.146 68.0625 167.438C68.1875 167.354 68.3333 167.25 68.5 167.125C68.7083 166.958 68.8125 166.771 68.8125 166.562C68.8125 166.354 68.6458 166.208 68.3125 166.125C68.0208 166 67.875 165.771 67.875 165.438C67.875 165.396 67.8958 165.333 67.9375 165.25C67.9792 165.125 68 165.021 68 164.938C68.2917 164.021 68.7292 163.146 69.3125 162.312C69.8958 161.479 70.5625 160.688 71.3125 159.938C72.0625 159.188 72.8333 158.5 73.625 157.875C74.4583 157.208 75.25 156.604 76 156.062C76.5417 155.688 77 155.208 77.375 154.625C77.7917 154.042 78.2292 153.625 78.6875 153.375C78.9792 153.375 79.2708 153.375 79.5625 153.375C79.8542 153.333 80.1458 153.312 80.4375 153.312C80.7708 153.312 81.0625 153.333 81.3125 153.375C81.6042 153.375 81.9167 153.375 82.25 153.375C82.7083 153.208 83.0208 153.021 83.1875 152.812C83.3542 152.562 83.5208 152.333 83.6875 152.125C83.8542 151.917 84.0625 151.75 84.3125 151.625C84.6042 151.5 85.1042 151.438 85.8125 151.438C86.2708 151.438 86.7292 151.458 87.1875 151.5C87.6458 151.5 88.1042 151.5 88.5625 151.5C90.1458 151.5 91.7083 151.479 93.25 151.438C94.8333 151.396 96.4167 151.375 98 151.375C99.125 151.375 100.229 151.396 101.312 151.438C102.438 151.438 103.562 151.521 104.688 151.688C105.438 151.771 106.167 151.938 106.875 152.188C107.583 152.396 108.333 152.5 109.125 152.5C109.875 152.5 110.396 152.354 110.688 152.062C111.021 151.771 111.271 151.458 111.438 151.125C111.646 150.792 111.875 150.479 112.125 150.188C112.375 149.896 112.812 149.75 113.438 149.75C114.312 149.75 115.208 149.979 116.125 150.438C117.083 150.896 117.979 151.271 118.812 151.562L118.75 151.812C118.625 152.188 118.562 152.604 118.562 153.062C118.562 153.771 118.667 154.479 118.875 155.188C119.125 155.854 119.375 156.521 119.625 157.188C119.875 157.854 120.104 158.521 120.312 159.188C120.562 159.854 120.688 160.562 120.688 161.312C120.688 161.771 120.646 162.208 120.562 162.625C120.479 163 120.438 163.417 120.438 163.875C120.438 164.708 120.604 165.312 120.938 165.688C121.271 166.021 121.438 166.333 121.438 166.625C121.438 166.958 121.292 167.25 121 167.5C120.708 167.708 120.562 168.042 120.562 168.5C120.562 169.583 120.625 170.667 120.75 171.75C120.875 172.792 120.938 173.854 120.938 174.938C120.938 175.312 120.917 175.875 120.875 176.625C120.875 177.375 120.792 178.125 120.625 178.875C120.5 179.583 120.271 180.208 119.938 180.75C119.646 181.292 119.208 181.562 118.625 181.562C118 181.562 117.396 181.333 116.812 180.875C116.229 180.375 115.75 179.896 115.375 179.438C114.833 178.854 114.438 178.229 114.188 177.562C113.938 176.854 113.729 176.125 113.562 175.375C113.396 174.625 113.208 173.896 113 173.188C112.792 172.438 112.479 171.75 112.062 171.125C111.396 170.167 110.75 169.208 110.125 168.25C109.542 167.25 108.958 166.25 108.375 165.25C107.917 164.5 107.521 163.979 107.188 163.688C106.854 163.396 106.5 163.208 106.125 163.125C105.75 163 105.312 162.938 104.812 162.938C104.354 162.938 103.771 162.875 103.062 162.75C102.312 162.625 101.562 162.438 100.812 162.188C100.104 161.938 99.375 161.708 98.625 161.5C97.9167 161.25 97.1875 161.042 96.4375 160.875C95.6875 160.667 94.9375 160.562 94.1875 160.562C92.9792 160.562 91.75 160.75 90.5 161.125C89.25 161.5 88 161.979 86.75 162.562C85.5 163.104 84.2708 163.688 83.0625 164.312C81.8542 164.896 80.6875 165.396 79.5625 165.812C78.5208 168.021 78 170.396 78 172.938C78 174.771 78.2083 176.271 78.625 177.438C79.0417 178.604 79.6042 179.604 80.3125 180.438C81.0625 181.229 81.8958 181.938 82.8125 182.562C83.7708 183.188 84.7708 183.854 85.8125 184.562C86.8958 185.271 87.9583 185.75 89 186C90.0833 186.208 91.25 186.312 92.5 186.312C93.2083 186.312 93.8958 186.292 94.5625 186.25C95.2708 186.208 95.9792 186.188 96.6875 186.188C97.4792 186.188 98.2292 186.292 98.9375 186.5C99.6458 186.708 100.333 186.958 101 187.25C101.708 187.5 102.417 187.729 103.125 187.938C103.833 188.146 104.562 188.25 105.312 188.25C106.021 188.25 106.688 188.208 107.312 188.125C107.979 188.042 108.646 188 109.312 188C109.896 188 110.417 188.146 110.875 188.438C111.333 188.688 111.792 189 112.25 189.375C112.708 189.708 113.167 190.021 113.625 190.312C114.125 190.604 114.667 190.771 115.25 190.812C116.083 191.229 116.771 191.604 117.312 191.938C117.854 192.271 118.333 192.625 118.75 193C119.208 193.375 119.625 193.833 120 194.375C120.417 194.917 120.875 195.583 121.375 196.375C121.833 197.167 122.438 197.854 123.188 198.438C123.938 199.021 124.542 199.729 125 200.562C125.167 200.854 125.271 201.208 125.312 201.625C125.354 202 125.417 202.375 125.5 202.75C125.583 203.083 125.708 203.396 125.875 203.688C126.083 203.938 126.396 204.083 126.812 204.125C126.854 204.583 126.875 205.042 126.875 205.5C126.917 205.917 126.938 206.354 126.938 206.812ZM200.938 145.312C200.938 145.979 200.792 146.562 200.5 147.062C200.208 147.521 199.812 147.917 199.312 148.25C198.854 148.583 198.312 148.875 197.688 149.125C197.104 149.375 196.5 149.604 195.875 149.812C195.958 150.146 196.021 150.479 196.062 150.812C196.104 151.104 196.125 151.417 196.125 151.75C196.125 153.25 195.625 154.667 194.625 156C193.667 157.333 192.583 158.542 191.375 159.625C191.208 160.25 191 160.875 190.75 161.5C190.5 162.083 190.208 162.667 189.875 163.25V163.188C189.542 163.854 189.25 164.521 189 165.188C188.75 165.854 188.479 166.5 188.188 167.125C187.896 167.75 187.542 168.333 187.125 168.875C186.75 169.375 186.229 169.792 185.562 170.125C184.854 171.375 184.125 172.646 183.375 173.938C182.667 175.188 181.875 176.458 181 177.75C181.042 177.833 181.083 177.938 181.125 178.062C181.167 178.146 181.188 178.271 181.188 178.438C181.188 179.104 181.021 179.688 180.688 180.188C180.396 180.688 180.042 181.167 179.625 181.625V181.562C179.375 181.896 179.125 182.208 178.875 182.5C178.667 182.792 178.521 183.125 178.438 183.5C177.396 184.417 176.625 185.292 176.125 186.125C175.625 186.958 175.167 187.792 174.75 188.625C174.375 189.417 173.938 190.229 173.438 191.062C172.938 191.854 172.146 192.708 171.062 193.625V194.062C171.062 194.562 170.896 195.188 170.562 195.938C170.271 196.688 169.896 197.458 169.438 198.25C168.979 199 168.479 199.729 167.938 200.438C167.396 201.146 166.917 201.708 166.5 202.125V202.25C166.5 203.542 166.083 204.771 165.25 205.938C164.417 207.104 163.479 208.167 162.438 209.125C162.104 209.417 161.854 209.75 161.688 210.125C161.521 210.5 161.354 210.896 161.188 211.312C161.021 211.688 160.833 212.083 160.625 212.5C160.417 212.875 160.125 213.208 159.75 213.5C159.625 214.542 159.438 215.458 159.188 216.25C158.938 217.042 158.646 217.812 158.312 218.562C158.021 219.271 157.667 219.979 157.25 220.688C156.875 221.396 156.438 222.167 155.938 223L155.312 223.938C155.229 224.438 154.896 225.188 154.312 226.188C153.771 227.146 153.125 228.167 152.375 229.25C151.667 230.333 150.938 231.396 150.188 232.438C149.438 233.438 148.812 234.208 148.312 234.75C148.229 235.208 148 235.917 147.625 236.875C147.292 237.792 146.833 238.708 146.25 239.625C145.667 240.583 144.958 241.417 144.125 242.125C143.292 242.833 142.333 243.188 141.25 243.188C140.375 243.188 139.562 242.979 138.812 242.562C138.104 242.188 137.5 241.688 137 241.062C136.5 240.479 136.104 239.833 135.812 239.125C135.562 238.417 135.438 237.729 135.438 237.062C135.438 235.854 135.75 234.771 136.375 233.812C137 232.854 137.708 231.938 138.5 231.062C139.5 229.896 140.292 228.833 140.875 227.875C141.458 226.875 142.167 226.021 143 225.312C143.292 224.979 143.562 224.604 143.812 224.188C144.104 223.771 144.438 223.271 144.812 222.688C145.188 222.062 145.646 221.333 146.188 220.5C146.729 219.667 147.417 218.667 148.25 217.5C149.292 216.125 150.188 214.875 150.938 213.75C151.729 212.625 152.438 211.542 153.062 210.5C153.688 209.417 154.271 208.333 154.812 207.25C155.396 206.125 155.979 204.896 156.562 203.562C157.021 202.521 157.604 201.458 158.312 200.375C159.021 199.25 159.729 198.188 160.438 197.188C161.146 196.146 161.792 195.146 162.375 194.188C163 193.229 163.438 192.354 163.688 191.562H163.625C163.75 191.146 163.854 190.75 163.938 190.375C164.062 189.958 164.271 189.521 164.562 189.062V189.125C165.021 188.333 165.375 187.792 165.625 187.5V187.562C165.875 187.229 166.083 186.917 166.25 186.625C166.458 186.333 166.562 185.979 166.562 185.562V184.875C166.938 184.583 167.396 184.042 167.938 183.25C168.479 182.417 168.979 181.542 169.438 180.625C169.938 179.667 170.354 178.75 170.688 177.875C171.062 176.958 171.25 176.271 171.25 175.812C172.5 174.729 173.438 173.521 174.062 172.188C174.729 170.854 175.292 169.562 175.75 168.312C176.333 166.646 177 165.125 177.75 163.75C178.542 162.333 179.375 160.875 180.25 159.375L180.812 158.312C180.979 158.062 181.167 157.833 181.375 157.625C181.625 157.375 181.875 157.125 182.125 156.875C182.208 156.792 182.458 156.438 182.875 155.812C183.292 155.188 183.729 154.438 184.188 153.562C184.688 152.688 185.146 151.771 185.562 150.812C186.021 149.812 186.292 148.917 186.375 148.125C186.667 147.958 186.979 147.646 187.312 147.188C187.688 146.688 188.021 146.167 188.312 145.625C188.604 145.083 188.854 144.562 189.062 144.062C189.271 143.562 189.375 143.188 189.375 142.938C190.167 142.688 190.667 142.479 190.875 142.312C191.125 142.146 191.354 142 191.562 141.875H191.5C191.917 141.583 192.354 141.333 192.812 141.125C193.312 140.917 194.083 140.812 195.125 140.812C196.708 140.812 198.062 141.208 199.188 142C200.354 142.792 200.938 143.896 200.938 145.312ZM287.188 233.5C286.938 234.375 286.5 235.083 285.875 235.625C285.292 236.125 284.604 236.521 283.812 236.812C283.021 237.104 282.167 237.312 281.25 237.438C280.375 237.521 279.542 237.562 278.75 237.562C277.542 237.562 276.354 237.5 275.188 237.375C274.021 237.208 272.854 237.021 271.688 236.812C271.062 236.729 270.271 236.667 269.312 236.625C268.396 236.583 267.479 236.479 266.562 236.312C265.646 236.146 264.854 235.854 264.188 235.438C263.562 234.979 263.25 234.292 263.25 233.375C263.25 232.333 263.458 231.583 263.875 231.125C264.292 230.625 264.812 230.292 265.438 230.125C266.062 229.917 266.75 229.792 267.5 229.75C268.25 229.708 268.938 229.583 269.562 229.375C270.188 229.125 270.708 228.75 271.125 228.25C271.542 227.708 271.75 226.854 271.75 225.688C271.75 224.938 271.667 224.188 271.5 223.438C271.375 222.688 271.229 221.958 271.062 221.25C270.896 220.5 270.729 219.771 270.562 219.062C270.438 218.312 270.375 217.562 270.375 216.812C270.375 216.312 270.521 215.792 270.812 215.25C271.146 214.667 271.312 214.021 271.312 213.312C271.312 212.021 271.208 210.812 271 209.688C270.792 208.562 270.458 207.396 270 206.188C269.708 205.396 269.562 204.667 269.562 204C269.562 203.375 269.688 202.771 269.938 202.188C270.229 201.604 270.375 200.979 270.375 200.312C270.375 199.438 270.229 198.604 269.938 197.812C269.646 196.979 269.5 196.125 269.5 195.25C269.5 194.083 269.625 192.938 269.875 191.812C270.125 190.688 270.25 189.542 270.25 188.375C270.25 187.583 270.167 186.708 270 185.75C269.833 184.792 269.604 183.833 269.312 182.875C269.062 181.875 268.792 180.917 268.5 180C268.208 179.042 267.938 178.188 267.688 177.438C266.854 177.812 266.167 178.312 265.625 178.938C265.125 179.521 264.708 180.188 264.375 180.938C264.083 181.688 263.833 182.479 263.625 183.312C263.458 184.146 263.312 184.958 263.188 185.75C262.896 187.375 262.438 188.958 261.812 190.5C261.229 192.042 260.812 193.625 260.562 195.25C260.229 197.25 260.021 199.229 259.938 201.188C259.896 203.146 259.792 205.104 259.625 207.062C259.5 208.979 259.271 210.896 258.938 212.812C258.604 214.729 258 216.646 257.125 218.562C256.792 219.271 256.583 219.938 256.5 220.562C256.417 221.188 256.375 221.833 256.375 222.5C256.375 223.083 256.396 223.667 256.438 224.25C256.479 224.833 256.5 225.438 256.5 226.062C256.5 227.354 256.354 228.333 256.062 229C255.812 229.625 255.521 230.146 255.188 230.562C254.854 230.979 254.521 231.396 254.188 231.812C253.854 232.188 253.604 232.771 253.438 233.562C253.312 234.229 252.958 234.75 252.375 235.125C251.833 235.458 251.188 235.75 250.438 236C249.688 236.208 248.938 236.396 248.188 236.562C247.438 236.688 246.812 236.875 246.312 237.125C245.854 236.167 245.292 235.271 244.625 234.438C244 233.604 243.417 232.729 242.875 231.812C242.292 230.854 241.917 229.833 241.75 228.75C241.625 227.667 241.375 226.583 241 225.5C240.833 225 240.625 224.562 240.375 224.188C240.167 223.812 239.958 223.438 239.75 223.062C239.583 222.646 239.417 222.229 239.25 221.812C239.125 221.396 239.062 220.896 239.062 220.312C239.062 219.854 239.083 219.438 239.125 219.062C239.167 218.646 239.188 218.208 239.188 217.75C239.188 216.75 239.021 215.688 238.688 214.562C238.021 212.438 237.438 210.354 236.938 208.312C236.438 206.271 236.083 204.125 235.875 201.875C235.667 199.833 235.5 197.771 235.375 195.688C235.25 193.604 234.812 191.583 234.062 189.625C233.688 188.667 233.25 187.75 232.75 186.875C232.25 186 231.833 185.083 231.5 184.125C231.417 183.917 231.333 183.583 231.25 183.125C231.208 182.667 231.125 182.188 231 181.688C230.917 181.188 230.792 180.75 230.625 180.375C230.5 179.958 230.354 179.729 230.188 179.688C229.979 179.854 229.833 180.104 229.75 180.438C229.458 181.188 229.229 181.708 229.062 182C228.896 182.292 228.729 182.542 228.562 182.75C228.438 182.917 228.271 183.104 228.062 183.312C227.854 183.521 227.562 183.896 227.188 184.438C226.854 184.896 226.688 185.396 226.688 185.938C226.688 186.896 226.896 187.833 227.312 188.75C227.729 189.625 227.938 190.542 227.938 191.5C227.938 191.958 227.854 192.438 227.688 192.938C227.521 193.396 227.438 193.854 227.438 194.312C227.438 195.521 227.604 196.729 227.938 197.938C228.312 199.104 228.5 200.292 228.5 201.5C228.5 202.458 228.354 203.396 228.062 204.312C227.771 205.188 227.625 206.104 227.625 207.062C227.625 208.062 227.729 209.062 227.938 210.062C228.188 211.021 228.312 212 228.312 213C228.312 213.833 228.229 214.646 228.062 215.438C227.896 216.188 227.708 216.958 227.5 217.75C227.333 218.542 227.167 219.333 227 220.125C226.833 220.917 226.75 221.729 226.75 222.562C226.75 224.271 227.083 225.479 227.75 226.188C228.417 226.896 229.208 227.438 230.125 227.812C231.083 228.188 232.062 228.562 233.062 228.938C234.062 229.271 234.917 229.917 235.625 230.875C235.25 231.5 234.958 232.188 234.75 232.938C234.583 233.646 234.312 234.312 233.938 234.938C233.604 235.479 233.25 235.854 232.875 236.062C232.542 236.271 232.188 236.417 231.812 236.5C231.479 236.542 231.104 236.604 230.688 236.688C230.271 236.729 229.833 236.875 229.375 237.125C228.917 237.375 228.583 237.625 228.375 237.875C228.208 238.083 228.042 238.271 227.875 238.438C227.708 238.646 227.458 238.792 227.125 238.875C226.833 239 226.354 239.062 225.688 239.062C224.979 239.062 224.271 238.979 223.562 238.812C222.854 238.646 222.146 238.562 221.438 238.562C220.688 238.562 219.958 238.667 219.25 238.875C218.542 239.125 217.812 239.25 217.062 239.25C216.188 239.25 215.312 239.083 214.438 238.75C213.562 238.458 212.771 238.042 212.062 237.5C211.396 236.917 210.833 236.25 210.375 235.5C209.958 234.708 209.75 233.833 209.75 232.875C209.75 231.458 210.042 230.375 210.625 229.625C211.208 228.875 211.938 228.292 212.812 227.875C213.729 227.417 214.708 227.042 215.75 226.75C216.792 226.417 217.771 226 218.688 225.5C218.896 224.792 219.021 224.083 219.062 223.375C219.104 222.625 219.125 221.875 219.125 221.125C219.125 219.917 219.062 218.708 218.938 217.5C218.854 216.292 218.812 215.083 218.812 213.875C218.812 213.083 218.896 212.312 219.062 211.562C219.229 210.771 219.312 209.958 219.312 209.125C219.312 208.708 219.25 208.312 219.125 207.938C218.542 206.396 218.167 204.917 218 203.5C217.875 202.083 217.812 200.542 217.812 198.875C217.812 198.167 217.896 197.479 218.062 196.812C218.271 196.146 218.479 195.479 218.688 194.812C218.938 194.146 219.146 193.479 219.312 192.812C219.521 192.146 219.625 191.458 219.625 190.75C219.625 189.458 219.542 188.188 219.375 186.938C219.208 185.688 219.125 184.417 219.125 183.125C219.125 182.292 219.208 181.479 219.375 180.688C219.542 179.896 219.625 179.083 219.625 178.25C219.625 177.417 219.458 176.625 219.125 175.875C218.792 175.083 218.625 174.271 218.625 173.438C218.625 172.854 218.771 172.333 219.062 171.875C219.396 171.417 219.562 170.896 219.562 170.312C219.562 169.979 219.396 169.646 219.062 169.312C218.729 168.979 218.562 168.438 218.562 167.688C218.562 167.062 218.583 166.438 218.625 165.812C218.708 165.188 218.75 164.562 218.75 163.938C218.75 162.688 218.542 161.708 218.125 161C217.708 160.25 217.188 159.688 216.562 159.312C215.979 158.896 215.333 158.604 214.625 158.438C213.917 158.271 213.25 158.104 212.625 157.938C212.042 157.729 211.542 157.5 211.125 157.25C210.708 157 210.5 156.583 210.5 156C210.5 155.458 210.792 154.917 211.375 154.375C212 153.792 212.771 153.229 213.688 152.688C214.604 152.146 215.604 151.625 216.688 151.125C217.771 150.583 218.771 150.104 219.688 149.688C220.604 149.271 221.375 148.917 222 148.625C222.667 148.333 223.042 148.125 223.125 148C223.292 148.292 223.521 148.5 223.812 148.625C224.104 148.708 224.417 148.771 224.75 148.812C225.125 148.812 225.479 148.812 225.812 148.812C226.188 148.812 226.5 148.854 226.75 148.938C227.167 149.062 227.479 149.229 227.688 149.438C227.896 149.646 228.083 149.854 228.25 150.062C228.458 150.271 228.729 150.479 229.062 150.688C229.396 150.896 229.896 151.083 230.562 151.25C232.146 151.667 233.333 152.271 234.125 153.062C234.958 153.812 235.375 155.062 235.375 156.812C235.375 157.271 235.333 157.729 235.25 158.188C235.167 158.604 235.125 159.042 235.125 159.5L236.688 163.938C236.812 164.396 236.938 164.875 237.062 165.375C237.229 165.833 237.354 166.292 237.438 166.75C237.896 167.125 238.25 167.688 238.5 168.438C238.75 169.188 238.917 170 239 170.875C239.125 171.708 239.208 172.542 239.25 173.375C239.292 174.208 239.354 174.917 239.438 175.5C239.562 176.458 239.771 177.396 240.062 178.312C240.396 179.188 240.562 180.104 240.562 181.062C240.562 181.646 240.458 182.229 240.25 182.812C240.083 183.396 240 184 240 184.625C240 185.708 240.146 186.771 240.438 187.812C240.729 188.854 241.062 189.896 241.438 190.938C241.812 191.938 242.146 192.958 242.438 194C242.771 195.042 242.958 196.104 243 197.188C243 197.688 243.042 198.458 243.125 199.5C243.25 200.542 243.396 201.708 243.562 203C243.771 204.25 244 205.562 244.25 206.938C244.542 208.271 244.875 209.5 245.25 210.625C245.667 211.75 246.125 212.667 246.625 213.375C247.167 214.083 247.75 214.438 248.375 214.438C249.125 214.438 249.604 214.229 249.812 213.812C250.021 213.354 250.146 212.833 250.188 212.25C250.229 211.667 250.292 211.083 250.375 210.5C250.458 209.917 250.75 209.5 251.25 209.25C251.667 209 252.021 208.521 252.312 207.812C252.646 207.062 252.917 206.25 253.125 205.375C253.333 204.458 253.479 203.583 253.562 202.75C253.688 201.875 253.771 201.208 253.812 200.75C253.938 198.583 254 196.354 254 194.062C254 191.771 254.042 189.479 254.125 187.188C254.208 184.854 254.396 182.583 254.688 180.375C254.979 178.125 255.458 175.958 256.125 173.875C256.25 173.542 256.417 173.229 256.625 172.938C256.833 172.646 257.042 172.354 257.25 172.062C257.458 171.729 257.625 171.417 257.75 171.125C257.917 170.792 258 170.438 258 170.062C258 169.812 257.938 169.604 257.812 169.438C257.688 169.229 257.542 169.062 257.375 168.938C257.25 168.812 257.125 168.688 257 168.562C256.875 168.438 256.812 168.292 256.812 168.125C256.812 167.917 256.875 167.771 257 167.688C257.125 167.562 257.25 167.438 257.375 167.312C257.958 166.646 258.312 165.729 258.438 164.562C258.604 163.354 258.708 162.083 258.75 160.75C258.792 159.375 258.833 158.042 258.875 156.75C258.958 155.417 259.229 154.292 259.688 153.375C260.188 153.583 260.667 153.688 261.125 153.688C261.708 153.688 262.271 153.583 262.812 153.375C263.354 153.125 263.875 152.875 264.375 152.625C264.917 152.375 265.458 152.146 266 151.938C266.583 151.688 267.188 151.562 267.812 151.562C268.021 151.562 268.25 151.583 268.5 151.625C268.75 151.625 268.979 151.625 269.188 151.625C270.021 151.625 270.771 151.438 271.438 151.062C272.104 150.688 272.792 150.5 273.5 150.5C273.792 150.5 274 150.562 274.125 150.688C274.25 150.812 274.333 150.938 274.375 151.062C274.458 151.188 274.542 151.312 274.625 151.438C274.708 151.562 274.833 151.625 275 151.625C275.708 151.625 276.417 151.542 277.125 151.375C277.875 151.208 278.604 151.125 279.312 151.125C279.771 151.125 280.146 151.188 280.438 151.312C280.729 151.396 281.021 151.646 281.312 152.062C281.646 152.562 282.104 152.896 282.688 153.062C283.271 153.188 283.854 153.333 284.438 153.5C285.021 153.625 285.521 153.833 285.938 154.125C286.396 154.375 286.625 154.854 286.625 155.562C286.625 157.021 286.271 158.021 285.562 158.562C284.854 159.104 284.021 159.479 283.062 159.688C282.146 159.854 281.229 160.021 280.312 160.188C279.438 160.312 278.812 160.708 278.438 161.375C278.021 162.083 277.771 162.854 277.688 163.688C277.604 164.521 277.396 165.333 277.062 166.125C276.938 166.458 276.833 166.771 276.75 167.062C276.667 167.354 276.625 167.667 276.625 168C276.625 168.667 276.708 169.312 276.875 169.938C277.042 170.562 277.229 171.188 277.438 171.812C277.688 172.396 277.917 173 278.125 173.625C278.333 174.25 278.479 174.875 278.562 175.5C278.812 177.75 278.938 180 278.938 182.25C278.938 183.583 278.854 184.917 278.688 186.25C278.562 187.583 278.417 188.917 278.25 190.25C278.083 191.583 277.917 192.917 277.75 194.25C277.625 195.542 277.562 196.833 277.562 198.125C277.562 199.125 277.25 199.938 276.625 200.562L276.562 202C276.562 203.208 276.646 204.417 276.812 205.625C276.979 206.833 277.167 208.042 277.375 209.25C277.583 210.417 277.771 211.604 277.938 212.812C278.104 214.021 278.188 215.229 278.188 216.438C278.188 218.062 277.958 219.667 277.5 221.25C277.042 222.833 276.812 224.438 276.812 226.062C276.812 227.271 277.062 228.229 277.562 228.938C278.062 229.646 278.979 230 280.312 230C280.896 230 281.479 229.979 282.062 229.938C282.688 229.854 283.292 229.812 283.875 229.812C284.458 229.812 285.062 229.875 285.688 230C286.312 230.125 286.854 230.417 287.312 230.875C287.312 231.042 287.333 231.292 287.375 231.625C287.458 231.958 287.5 232.292 287.5 232.625C287.542 232.917 287.542 233.167 287.5 233.375C287.458 233.583 287.354 233.625 287.188 233.5ZM229.438 171.875C229.438 171.083 229.312 170.292 229.062 169.5C228.854 168.667 228.375 168.042 227.625 167.625C227.625 168 227.604 168.396 227.562 168.812C227.562 169.188 227.562 169.562 227.562 169.938C227.562 170.604 227.646 171.271 227.812 171.938C228.021 172.562 228.542 172.896 229.375 172.938C229.417 172.771 229.438 172.604 229.438 172.438C229.438 172.271 229.438 172.083 229.438 171.875ZM278.188 229.812C278.188 229.562 278.021 229.354 277.688 229.188C277.354 229.021 277.083 228.938 276.875 228.938C276.75 228.938 276.562 228.958 276.312 229C276.104 229.042 275.875 229.104 275.625 229.188C275.417 229.271 275.229 229.375 275.062 229.5C274.896 229.625 274.812 229.771 274.812 229.938C274.812 230.188 275 230.354 275.375 230.438C275.792 230.479 276.104 230.5 276.312 230.5C276.521 230.5 276.875 230.458 277.375 230.375C277.917 230.292 278.188 230.104 278.188 229.812ZM250.75 221.062C250.583 221.062 250.417 221.062 250.25 221.062C250.125 221.021 249.979 221 249.812 221C249.104 221 248.479 221.146 247.938 221.438C247.438 221.688 247.188 222.229 247.188 223.062V223.75C247.354 223.75 247.5 223.771 247.625 223.812C247.792 223.812 247.958 223.812 248.125 223.812C248.833 223.812 249.458 223.688 250 223.438C250.542 223.146 250.812 222.583 250.812 221.75L250.75 221.062Z" fill="white"/>
<defs>
<filter id="filter0_dddddddd_19_17" x="0" y="0" width="352" height="415" filterUnits="userSpaceOnUse" color-interpolation-filters="sRGB">
<feFlood flood-opacity="0" result="BackgroundImageFix"/>
<feColorMatrix in="SourceAlpha" type="matrix" values="0 0 0 0 0 0 0 0 0 0 0 0 0 0 0 0 0 0 127 0" result="hardAlpha"/>
<feOffset/>
<feGaussianBlur stdDeviation="2"/>
<feComposite in2="hardAlpha" operator="out"/>
<feColorMatrix type="matrix" values="0 0 0 0 0 0 0 0 0 0 0 0 0 0 0 0 0 0 0.25 0"/>
<feBlend mode="normal" in2="BackgroundImageFix" result="effect1_dropShadow_19_17"/>
<feColorMatrix in="SourceAlpha" type="matrix" values="0 0 0 0 0 0 0 0 0 0 0 0 0 0 0 0 0 0 127 0" result="hardAlpha"/>
<feOffset/>
<feGaussianBlur stdDeviation="2"/>
<feComposite in2="hardAlpha" operator="out"/>
<feColorMatrix type="matrix" values="0 0 0 0 0 0 0 0 0 0 0 0 0 0 0 0 0 0 0.25 0"/>
<feBlend mode="normal" in2="effect1_dropShadow_19_17" result="effect2_dropShadow_19_17"/>
<feColorMatrix in="SourceAlpha" type="matrix" values="0 0 0 0 0 0 0 0 0 0 0 0 0 0 0 0 0 0 127 0" result="hardAlpha"/>
<feOffset/>
<feGaussianBlur stdDeviation="2"/>
<feComposite in2="hardAlpha" operator="out"/>
<feColorMatrix type="matrix" values="0 0 0 0 0 0 0 0 0 0 0 0 0 0 0 0 0 0 0.25 0"/>
<feBlend mode="normal" in2="effect2_dropShadow_19_17" result="effect3_dropShadow_19_17"/>
<feColorMatrix in="SourceAlpha" type="matrix" values="0 0 0 0 0 0 0 0 0 0 0 0 0 0 0 0 0 0 127 0" result="hardAlpha"/>
<feOffset/>
<feGaussianBlur stdDeviation="2"/>
<feComposite in2="hardAlpha" operator="out"/>
<feColorMatrix type="matrix" values="0 0 0 0 0 0 0 0 0 0 0 0 0 0 0 0 0 0 0.25 0"/>
<feBlend mode="normal" in2="effect3_dropShadow_19_17" result="effect4_dropShadow_19_17"/>
<feColorMatrix in="SourceAlpha" type="matrix" values="0 0 0 0 0 0 0 0 0 0 0 0 0 0 0 0 0 0 127 0" result="hardAlpha"/>
<feOffset dy="4"/>
<feGaussianBlur stdDeviation="2"/>
<feComposite in2="hardAlpha" operator="out"/>
<feColorMatrix type="matrix" values="0 0 0 0 0 0 0 0 0 0 0 0 0 0 0 0 0 0 0.25 0"/>
<feBlend mode="normal" in2="effect4_dropShadow_19_17" result="effect5_dropShadow_19_17"/>
<feColorMatrix in="SourceAlpha" type="matrix" values="0 0 0 0 0 0 0 0 0 0 0 0 0 0 0 0 0 0 127 0" result="hardAlpha"/>
<feOffset dy="4"/>
<feGaussianBlur stdDeviation="2"/>
<feComposite in2="hardAlpha" operator="out"/>
<feColorMatrix type="matrix" values="0 0 0 0 0 0 0 0 0 0 0 0 0 0 0 0 0 0 0.25 0"/>
<feBlend mode="normal" in2="effect5_dropShadow_19_17" result="effect6_dropShadow_19_17"/>
<feColorMatrix in="SourceAlpha" type="matrix" values="0 0 0 0 0 0 0 0 0 0 0 0 0 0 0 0 0 0 127 0" result="hardAlpha"/>
<feOffset dy="4"/>
<feGaussianBlur stdDeviation="2"/>
<feComposite in2="hardAlpha" operator="out"/>
<feColorMatrix type="matrix" values="0 0 0 0 0 0 0 0 0 0 0 0 0 0 0 0 0 0 0.25 0"/>
<feBlend mode="normal" in2="effect6_dropShadow_19_17" result="effect7_dropShadow_19_17"/>
<feColorMatrix in="SourceAlpha" type="matrix" values="0 0 0 0 0 0 0 0 0 0 0 0 0 0 0 0 0 0 127 0" result="hardAlpha"/>
<feOffset dy="4"/>
<feGaussianBlur stdDeviation="2"/>
<feComposite in2="hardAlpha" operator="out"/>
<feColorMatrix type="matrix" values="0 0 0 0 0 0 0 0 0 0 0 0 0 0 0 0 0 0 0.25 0"/>
<feBlend mode="normal" in2="effect7_dropShadow_19_17" result="effect8_dropShadow_19_17"/>
<feBlend mode="normal" in="SourceGraphic" in2="effect8_dropShadow_19_17" result="shape"/>
</filter>
<linearGradient id="paint0_linear_19_17" x1="261.128" y1="25.2142" x2="80.5304" y2="380.529" gradientUnits="userSpaceOnUse">
<stop offset="0.745296" stop-color="#004262"/>
</linearGradient>
</defs>
</svg>
